<?xml version="1.0" encoding="UTF-8" standalone="no"?>
<svg
   xmlns:dc="http://purl.org/dc/elements/1.1/"
   xmlns:cc="http://creativecommons.org/ns#"
   xmlns:rdf="http://www.w3.org/1999/02/22-rdf-syntax-ns#"
   xmlns:svg="http://www.w3.org/2000/svg"
   xmlns="http://www.w3.org/2000/svg"
   xmlns:sodipodi="http://sodipodi.sourceforge.net/DTD/sodipodi-0.dtd"
   xmlns:inkscape="http://www.inkscape.org/namespaces/inkscape"
   height="22.500002pt"
   viewBox="0 0 22.500002 22.500002"
   width="22.500002pt"
   version="1.1"
   id="svg1122"
   sodipodi:docname="question_color.svg"
   inkscape:version="0.92.2 (5c3e80d, 2017-08-06)">
  <metadata
     id="metadata1128">
    <rdf:RDF>
      <cc:Work
         rdf:about="">
        <dc:format>image/svg+xml</dc:format>
        <dc:type
           rdf:resource="http://purl.org/dc/dcmitype/StillImage" />
        <dc:title></dc:title>
      </cc:Work>
    </rdf:RDF>
  </metadata>
  <defs
     id="defs1126" />
  <sodipodi:namedview
     pagecolor="#ffffff"
     bordercolor="#666666"
     borderopacity="1"
     objecttolerance="10"
     gridtolerance="10"
     guidetolerance="10"
     inkscape:pageopacity="0"
     inkscape:pageshadow="2"
     inkscape:window-width="883"
     inkscape:window-height="615"
     id="namedview1124"
     showgrid="false"
     units="px"
     fit-margin-top="0"
     fit-margin-left="0"
     fit-margin-right="0"
     fit-margin-bottom="0"
     inkscape:zoom="0.4609375"
     inkscape:cx="15"
     inkscape:cy="15.000002"
     inkscape:window-x="43"
     inkscape:window-y="27"
     inkscape:window-maximized="0"
     inkscape:current-layer="svg1122" />
  <path
     d="M 22.5,2.0454545 V 20.454545 C 22.5,21.58464 21.58464,22.5 20.454545,22.5 H 2.0454546 C 0.91536,22.5 0,21.58464 0,20.454545 V 2.0454545 C 0,0.91536 0.91536,0 2.0454546,0 H 20.454545 C 21.58464,0 22.5,0.91536 22.5,2.0454545 Z m 0,0"
     id="path1112"
     inkscape:connector-curvature="0"
     style="fill:#ff7043;stroke-width:0.06392047" />
  <g
     id="g1120"
     transform="matrix(0.05859375,0,0,0.05859375,1e-6,10e-7)"
     style="fill:#012e52">
    <path
       d="M 336,0 H 48 C 21.527344,0 0,21.527344 0,48 v 288 c 0,26.47266 21.527344,48 48,48 h 288 c 26.47266,0 48,-21.52734 48,-48 V 48 C 384,21.527344 362.47266,0 336,0 Z m 16,336 c 0,8.82422 -7.17578,16 -16,16 H 48 c -8.824219,0 -16,-7.17578 -16,-16 V 48 c 0,-8.824219 7.175781,-16 16,-16 h 288 c 8.82422,0 16,7.175781 16,16 z m 0,0"
       id="path1114"
       inkscape:connector-curvature="0" />
    <path
       d="m 192,280 c -8.83203,0 -16,7.16797 -16,16 v 16 c 0,8.83203 7.16797,16 16,16 8.83203,0 16,-7.16797 16,-16 v -16 c 0,-8.83984 -7.16797,-16 -16,-16 z m 0,0"
       id="path1116"
       inkscape:connector-curvature="0" />
    <path
       d="m 192,56 c -39.69531,0 -72,32.304688 -72,72 0,8.83203 7.16797,16 16,16 8.83203,0 16,-7.16797 16,-16 0,-22.05469 17.94531,-40 40,-40 22.05469,0 40,17.94531 40,40 0,22.05469 -17.94531,40 -40,40 -8.83203,0 -16,7.16797 -16,16 v 56 c 0,8.83203 7.16797,16 16,16 8.83203,0 16,-7.16797 16,-16 v -41.79297 c 32.02344,-7.29687 56,-36 56,-70.20703 0,-39.703125 -32.30469,-72 -72,-72 z m 0,0"
       id="path1118"
       inkscape:connector-curvature="0" />
  </g>
</svg>
