<?xml version="1.0" encoding="UTF-8" standalone="no"?>
<svg
   xmlns:dc="http://purl.org/dc/elements/1.1/"
   xmlns:cc="http://creativecommons.org/ns#"
   xmlns:rdf="http://www.w3.org/1999/02/22-rdf-syntax-ns#"
   xmlns:svg="http://www.w3.org/2000/svg"
   xmlns="http://www.w3.org/2000/svg"
   xmlns:sodipodi="http://sodipodi.sourceforge.net/DTD/sodipodi-0.dtd"
   xmlns:inkscape="http://www.inkscape.org/namespaces/inkscape"
   height="22.5pt"
   viewBox="0 0 22.5 22.5"
   width="22.5pt"
   version="1.1"
   id="svg8"
   sodipodi:docname="question_bw.svg"
   inkscape:version="0.92.3 (2405546, 2018-03-11)">
  <metadata
     id="metadata14">
    <rdf:RDF>
      <cc:Work
         rdf:about="">
        <dc:format>image/svg+xml</dc:format>
        <dc:type
           rdf:resource="http://purl.org/dc/dcmitype/StillImage" />
        <dc:title></dc:title>
      </cc:Work>
    </rdf:RDF>
  </metadata>
  <defs
     id="defs12" />
  <sodipodi:namedview
     pagecolor="#ffffff"
     bordercolor="#666666"
     borderopacity="1"
     objecttolerance="10"
     gridtolerance="10"
     guidetolerance="10"
     inkscape:pageopacity="0"
     inkscape:pageshadow="2"
     inkscape:window-width="1600"
     inkscape:window-height="846"
     id="namedview10"
     showgrid="false"
     fit-margin-top="0"
     fit-margin-left="0"
     fit-margin-right="0"
     fit-margin-bottom="0"
     inkscape:zoom="0.4609375"
     inkscape:cx="5.2372881"
     inkscape:cy="15"
     inkscape:window-x="0"
     inkscape:window-y="0"
     inkscape:window-maximized="1"
     inkscape:current-layer="svg8" />
  <path
     d="M 19.6875,0 H 2.8125 C 1.26137,0 0,1.26137 0,2.8125 v 16.875 C 0,21.23863 1.26137,22.5 2.8125,22.5 h 16.875 C 21.23863,22.5 22.5,21.23863 22.5,19.6875 V 2.8125 C 22.5,1.26183 21.23863,0 19.6875,0 Z m 0.9375,19.6875 c 0,0.51704 -0.42046,0.9375 -0.9375,0.9375 H 2.8125 C 2.29546,20.625 1.875,20.20454 1.875,19.6875 V 2.8125 C 1.875,2.29546 2.29546,1.875 2.8125,1.875 h 16.875 c 0.51704,0 0.9375,0.42046 0.9375,0.9375 z m 0,0"
     id="path2"
     inkscape:connector-curvature="0"
     style="stroke-width:0.05859375" />
  <path
     d="m 11.25,16.40625 c -0.5175,0 -0.9375,0.42 -0.9375,0.9375 v 0.9375 c 0,0.5175 0.42,0.9375 0.9375,0.9375 0.5175,0 0.9375,-0.42 0.9375,-0.9375 v -0.9375 c 0,-0.5175 -0.42,-0.9375 -0.9375,-0.9375 z m 0,0"
     id="path4"
     inkscape:connector-curvature="0"
     style="stroke-width:0.05859375" />
  <path
     d="m 11.25,3.28125 c -2.3259,0 -4.21875,1.89285 -4.21875,4.21875 0,0.5175 0.42,0.9375 0.9375,0.9375 0.5175,0 0.9375,-0.42 0.9375,-0.9375 0,-1.29227 1.05148,-2.34375 2.34375,-2.34375 1.29227,0 2.34375,1.05148 2.34375,2.34375 0,1.29227 -1.05148,2.34375 -2.34375,2.34375 -0.5175,0 -0.9375,0.42 -0.9375,0.9375 v 3.28125 c 0,0.5175 0.42,0.9375 0.9375,0.9375 0.5175,0 0.9375,-0.42 0.9375,-0.9375 V 11.61369 C 14.06387,11.18614 15.46875,9.50432 15.46875,7.5 15.46875,5.1741 13.5759,3.28125 11.25,3.28125 Z m 0,0"
     id="path6"
     inkscape:connector-curvature="0"
     style="stroke-width:0.05859375" />
</svg>
